<svg xmlns="http://www.w3.org/2000/svg" width="320" height="320" viewBox="0 0 320 320" role="img" aria-label="联系我们二维码">
  <rect width="320" height="320" fill="#ffffff"/>
  <rect x="16" y="16" width="288" height="288" rx="18" fill="#f8fafc" stroke="#e2e8f0" stroke-width="2"/>
  <g fill="#0f172a">
    <rect x="42" y="42" width="70" height="70" rx="4"/>
    <rect x="58" y="58" width="38" height="38" fill="#ffffff"/>
    <rect x="68" y="68" width="18" height="18"/>
    <rect x="208" y="42" width="70" height="70" rx="4"/>
    <rect x="224" y="58" width="38" height="38" fill="#ffffff"/>
    <rect x="234" y="68" width="18" height="18"/>
    <rect x="42" y="208" width="70" height="70" rx="4"/>
    <rect x="58" y="224" width="38" height="38" fill="#ffffff"/>
    <rect x="68" y="234" width="18" height="18"/>

    <rect x="132" y="44" width="14" height="14"/>
    <rect x="160" y="44" width="28" height="14"/>
    <rect x="132" y="72" width="42" height="14"/>
    <rect x="188" y="72" width="14" height="14"/>
    <rect x="132" y="100" width="14" height="28"/>
    <rect x="160" y="114" width="42" height="14"/>

    <rect x="42" y="132" width="14" height="42"/>
    <rect x="70" y="132" width="42" height="14"/>
    <rect x="98" y="160" width="14" height="28"/>
    <rect x="126" y="146" width="14" height="14"/>
    <rect x="154" y="132" width="28" height="14"/>
    <rect x="196" y="132" width="14" height="42"/>
    <rect x="224" y="146" width="54" height="14"/>
    <rect x="238" y="174" width="14" height="14"/>

    <rect x="126" y="196" width="28" height="14"/>
    <rect x="168" y="196" width="14" height="42"/>
    <rect x="196" y="196" width="42" height="14"/>
    <rect x="252" y="196" width="14" height="28"/>
    <rect x="126" y="224" width="14" height="54"/>
    <rect x="154" y="252" width="28" height="14"/>
    <rect x="196" y="224" width="14" height="14"/>
    <rect x="224" y="238" width="54" height="14"/>
    <rect x="210" y="266" width="14" height="14"/>
    <rect x="252" y="266" width="28" height="14"/>
  </g>
  <rect x="94" y="137" width="132" height="46" rx="23" fill="#ffffff" stroke="#cbd5e1"/>
  <text x="160" y="156" text-anchor="middle" font-family="Arial, 'Microsoft YaHei', sans-serif" font-size="13" font-weight="700" fill="#0f172a">联系我们</text>
  <text x="160" y="174" text-anchor="middle" font-family="Arial, 'Microsoft YaHei', sans-serif" font-size="10" fill="#64748b">替换 contact-qrcode.svg</text>
</svg>
